<svg width="50" height="51" viewBox="0 0 50 51" fill="none" xmlns="http://www.w3.org/2000/svg">
<mask id="mask0_30_351" style="mask-type:alpha" maskUnits="userSpaceOnUse" x="0" y="0" width="50" height="51">
<rect y="0.5" width="50" height="50" fill="#D9D9D9"/>
</mask>
<g mask="url(#mask0_30_351)">
<path d="M41.5625 44.25C37.2222 44.25 32.934 43.3038 28.6979 41.4115C24.4618 39.5191 20.6076 36.8368 17.1354 33.3646C13.6632 29.8924 10.9809 26.0382 9.08854 21.8021C7.19618 17.566 6.25 13.2778 6.25 8.9375C6.25 8.3125 6.45833 7.79167 6.875 7.375C7.29167 6.95833 7.8125 6.75 8.4375 6.75H16.875C17.3611 6.75 17.7951 6.91493 18.1771 7.24479C18.559 7.57465 18.7847 7.96528 18.8542 8.41667L20.2083 15.7083C20.2778 16.2639 20.2604 16.7326 20.1562 17.1146C20.0521 17.4965 19.8611 17.8264 19.5833 18.1042L14.5312 23.2083C15.2257 24.4931 16.0503 25.7344 17.0052 26.9323C17.9601 28.1302 19.0104 29.2847 20.1562 30.3958C21.2326 31.4722 22.3611 32.4705 23.5417 33.3906C24.7222 34.3108 25.9722 35.1528 27.2917 35.9167L32.1875 31.0208C32.5 30.7083 32.908 30.474 33.4115 30.3177C33.9149 30.1615 34.4097 30.1181 34.8958 30.1875L42.0833 31.6458C42.5694 31.7847 42.9687 32.0365 43.2812 32.401C43.5937 32.7656 43.75 33.1736 43.75 33.625V42.0625C43.75 42.6875 43.5417 43.2083 43.125 43.625C42.7083 44.0417 42.1875 44.25 41.5625 44.25ZM12.5521 19.25L15.9896 15.8125L15.1042 10.9167H10.4688C10.6424 12.3403 10.8854 13.7465 11.1979 15.1354C11.5104 16.5243 11.9618 17.8958 12.5521 19.25ZM31.1979 37.8958C32.5521 38.4861 33.9323 38.9549 35.3385 39.3021C36.7448 39.6493 38.1597 39.875 39.5833 39.9792V35.3958L34.6875 34.4062L31.1979 37.8958Z" fill="white"/>
</g>
</svg>
