<svg width="530" height="230" viewBox="0 0 530 230" fill="none" xmlns="http://www.w3.org/2000/svg">
<path d="M0 0H530V206C530 219.255 519.255 230 506 230H0V0Z" fill="#D9D9D9"/>
<path d="M253 94.3907C115.461 114.211 97.0865 143.698 63.5686 230H0V0H434C419.553 54.5063 419.758 70.3595 253 94.3907Z" fill="url(#paint0_linear_123_30)"/>
<path d="M221.404 81.512C221.956 81.536 222.664 81.56 223.528 81.584C224.416 81.608 225.292 81.62 226.156 81.62C227.308 81.62 228.4 81.608 229.432 81.584C230.488 81.56 231.232 81.548 231.664 81.548C234.352 81.548 236.356 82.076 237.676 83.132C239.02 84.188 239.692 85.544 239.692 87.2C239.692 88.04 239.488 88.88 239.08 89.72C238.696 90.536 238.06 91.28 237.172 91.952C236.284 92.6 235.108 93.116 233.644 93.5V93.572C235.66 93.788 237.244 94.22 238.396 94.868C239.548 95.516 240.364 96.296 240.844 97.208C241.324 98.096 241.564 99.032 241.564 100.016C241.564 101.432 241.204 102.668 240.484 103.724C239.764 104.756 238.72 105.56 237.352 106.136C236.008 106.712 234.388 107 232.492 107C231.964 107 231.16 106.988 230.08 106.964C229.024 106.916 227.74 106.892 226.228 106.892C225.316 106.892 224.416 106.904 223.528 106.928C222.664 106.928 221.956 106.952 221.404 107V106.28C222.22 106.232 222.832 106.136 223.24 105.992C223.648 105.848 223.912 105.56 224.032 105.128C224.176 104.696 224.248 104.048 224.248 103.184V85.328C224.248 84.44 224.176 83.792 224.032 83.384C223.912 82.952 223.636 82.664 223.204 82.52C222.796 82.352 222.196 82.256 221.404 82.232V81.512ZM230.908 82.232C229.876 82.232 229.192 82.436 228.856 82.844C228.544 83.252 228.388 84.08 228.388 85.328V103.184C228.388 104.024 228.46 104.66 228.604 105.092C228.748 105.524 229 105.812 229.36 105.956C229.744 106.1 230.296 106.172 231.016 106.172C233.176 106.172 234.736 105.632 235.696 104.552C236.68 103.448 237.172 101.888 237.172 99.872C237.172 98.024 236.68 96.596 235.696 95.588C234.736 94.58 233.14 94.076 230.908 94.076H227.416C227.416 94.076 227.416 93.98 227.416 93.788C227.416 93.572 227.416 93.464 227.416 93.464H230.512C231.832 93.464 232.852 93.2 233.572 92.672C234.292 92.12 234.784 91.4 235.048 90.512C235.312 89.6 235.444 88.628 235.444 87.596C235.444 85.82 235.096 84.488 234.4 83.6C233.704 82.688 232.54 82.232 230.908 82.232ZM252.892 87.92C255.004 87.92 256.66 88.556 257.86 89.828C259.06 91.1 259.66 93.116 259.66 95.876H247.24L247.168 95.192H255.844C255.868 94.016 255.772 92.936 255.556 91.952C255.34 90.944 255.004 90.14 254.548 89.54C254.092 88.94 253.492 88.64 252.748 88.64C251.716 88.64 250.816 89.192 250.048 90.296C249.304 91.376 248.848 93.116 248.68 95.516L248.788 95.696C248.764 96.032 248.74 96.404 248.716 96.812C248.692 97.196 248.68 97.58 248.68 97.964C248.68 99.62 248.932 101.012 249.436 102.14C249.94 103.268 250.6 104.12 251.416 104.696C252.232 105.248 253.06 105.524 253.9 105.524C254.548 105.524 255.172 105.428 255.772 105.236C256.396 105.02 256.984 104.672 257.536 104.192C258.088 103.688 258.58 103.004 259.012 102.14L259.732 102.428C259.444 103.244 259 104.048 258.4 104.84C257.8 105.632 257.032 106.28 256.096 106.784C255.16 107.264 254.068 107.504 252.82 107.504C251.14 107.504 249.676 107.132 248.428 106.388C247.18 105.62 246.22 104.528 245.548 103.112C244.876 101.696 244.54 100.016 244.54 98.072C244.54 95.936 244.888 94.112 245.584 92.6C246.28 91.088 247.252 89.936 248.5 89.144C249.772 88.328 251.236 87.92 252.892 87.92ZM268.836 87.92C269.796 87.92 270.624 88.076 271.32 88.388C272.04 88.676 272.556 88.94 272.868 89.18C273.66 89.804 274.152 89.396 274.344 87.956H275.136C275.088 88.628 275.052 89.444 275.028 90.404C275.004 91.34 274.992 92.588 274.992 94.148H274.2C274.056 93.26 273.804 92.396 273.444 91.556C273.108 90.716 272.604 90.02 271.932 89.468C271.284 88.916 270.432 88.64 269.376 88.64C268.584 88.64 267.924 88.868 267.396 89.324C266.868 89.756 266.604 90.404 266.604 91.268C266.604 91.988 266.82 92.612 267.252 93.14C267.684 93.668 268.236 94.16 268.908 94.616C269.604 95.072 270.348 95.564 271.14 96.092C272.028 96.692 272.82 97.292 273.516 97.892C274.236 98.468 274.8 99.116 275.208 99.836C275.64 100.556 275.856 101.396 275.856 102.356C275.856 103.46 275.556 104.396 274.956 105.164C274.38 105.932 273.612 106.52 272.652 106.928C271.692 107.312 270.636 107.504 269.484 107.504C268.908 107.504 268.368 107.444 267.864 107.324C267.36 107.228 266.892 107.096 266.46 106.928C266.196 106.784 265.932 106.64 265.668 106.496C265.428 106.328 265.188 106.172 264.948 106.028C264.708 105.86 264.492 105.884 264.3 106.1C264.108 106.316 263.964 106.7 263.868 107.252H263.076C263.124 106.484 263.16 105.548 263.184 104.444C263.208 103.34 263.22 101.876 263.22 100.052H264.012C264.18 101.372 264.432 102.536 264.768 103.544C265.104 104.552 265.596 105.344 266.244 105.92C266.916 106.472 267.828 106.748 268.98 106.748C269.436 106.748 269.892 106.652 270.348 106.46C270.804 106.244 271.176 105.908 271.464 105.452C271.776 104.996 271.932 104.384 271.932 103.616C271.932 102.56 271.56 101.696 270.816 101.024C270.096 100.328 269.16 99.596 268.008 98.828C267.192 98.252 266.412 97.688 265.668 97.136C264.948 96.56 264.36 95.924 263.904 95.228C263.448 94.508 263.22 93.656 263.22 92.672C263.22 91.592 263.472 90.704 263.976 90.008C264.504 89.312 265.2 88.796 266.064 88.46C266.928 88.1 267.852 87.92 268.836 87.92ZM284.717 82.484V88.46H289.685V89.18H284.717V103.328C284.717 104.312 284.897 105.008 285.257 105.416C285.617 105.824 286.133 106.028 286.805 106.028C287.429 106.028 287.981 105.776 288.461 105.272C288.965 104.768 289.397 103.916 289.757 102.716L290.441 102.968C290.153 104.24 289.637 105.32 288.893 106.208C288.173 107.072 287.105 107.504 285.689 107.504C284.873 107.504 284.189 107.396 283.637 107.18C283.085 106.988 282.605 106.7 282.197 106.316C281.669 105.764 281.309 105.104 281.117 104.336C280.925 103.568 280.829 102.548 280.829 101.276V89.18H277.517V88.46H280.829V83.204C281.573 83.18 282.269 83.12 282.917 83.024C283.565 82.904 284.165 82.724 284.717 82.484ZM247.108 153.396L247.684 153.612C247.444 154.716 247.132 155.64 246.748 156.384C246.364 157.152 245.896 157.764 245.344 158.22C244.888 158.628 244.264 158.988 243.472 159.3C242.68 159.612 241.708 159.768 240.556 159.768C239.284 159.768 238.036 159.552 236.812 159.12C235.612 158.712 234.364 158.208 233.068 157.608C231.796 157.032 230.404 156.48 228.892 155.952C228.724 155.904 228.568 155.856 228.424 155.808C228.28 155.76 228.148 155.724 228.028 155.7C227.572 155.892 227.08 156.036 226.552 156.132C226.024 156.252 225.52 156.312 225.04 156.312C224.56 156.312 224.164 156.24 223.852 156.096C223.54 155.976 223.384 155.784 223.384 155.52C223.384 154.968 224.032 154.692 225.328 154.692C226.168 154.692 227.068 154.812 228.028 155.052C228.916 154.812 229.672 154.536 230.296 154.224C230.92 153.936 231.568 153.66 232.24 153.396C232.912 153.132 233.716 152.964 234.652 152.892L234.688 153.468C233.968 153.54 233.332 153.672 232.78 153.864C232.252 154.08 231.724 154.308 231.196 154.548C230.668 154.788 230.032 155.016 229.288 155.232C230.656 155.424 232.06 155.628 233.5 155.844C234.94 156.084 236.308 156.264 237.604 156.384C238.9 156.528 240.028 156.576 240.988 156.528C242.62 156.48 243.916 156.204 244.876 155.7C245.836 155.22 246.58 154.452 247.108 153.396ZM233.68 127.008C236.032 127.008 238.096 127.524 239.872 128.556C241.672 129.588 243.064 131.076 244.048 133.02C245.032 134.94 245.524 137.28 245.524 140.04C245.524 142.728 245.02 145.08 244.012 147.096C243.004 149.112 241.6 150.684 239.8 151.812C238 152.94 235.948 153.504 233.644 153.504C231.268 153.504 229.192 152.988 227.416 151.956C225.64 150.924 224.26 149.436 223.276 147.492C222.292 145.548 221.8 143.208 221.8 140.472C221.8 137.784 222.304 135.432 223.312 133.416C224.344 131.4 225.748 129.828 227.524 128.7C229.3 127.572 231.352 127.008 233.68 127.008ZM233.536 127.656C232.048 127.656 230.752 128.196 229.648 129.276C228.544 130.356 227.692 131.844 227.092 133.74C226.492 135.636 226.192 137.832 226.192 140.328C226.192 142.872 226.528 145.092 227.2 146.988C227.872 148.86 228.784 150.312 229.936 151.344C231.088 152.352 232.372 152.856 233.788 152.856C235.276 152.856 236.56 152.316 237.64 151.236C238.744 150.156 239.596 148.668 240.196 146.772C240.82 144.852 241.132 142.656 241.132 140.184C241.132 137.616 240.784 135.396 240.088 133.524C239.416 131.652 238.504 130.212 237.352 129.204C236.224 128.172 234.952 127.656 233.536 127.656ZM265.137 134.028V149.112C265.137 150.192 265.317 150.996 265.677 151.524C266.061 152.028 266.745 152.28 267.729 152.28V153.036C266.985 152.964 266.241 152.928 265.497 152.928C264.705 152.928 263.949 152.964 263.229 153.036C262.509 153.108 261.849 153.24 261.249 153.432V149.508C260.649 150.948 259.809 151.98 258.729 152.604C257.673 153.204 256.557 153.504 255.381 153.504C254.493 153.504 253.737 153.372 253.113 153.108C252.489 152.868 251.973 152.544 251.565 152.136C251.133 151.656 250.833 151.044 250.665 150.3C250.497 149.532 250.413 148.572 250.413 147.42V138.348C250.413 137.268 250.233 136.476 249.873 135.972C249.513 135.444 248.829 135.18 247.821 135.18V134.424C248.589 134.496 249.333 134.532 250.053 134.532C250.845 134.532 251.601 134.496 252.321 134.424C253.041 134.328 253.701 134.196 254.301 134.028V148.428C254.301 149.124 254.349 149.76 254.445 150.336C254.541 150.912 254.769 151.368 255.129 151.704C255.489 152.04 256.065 152.208 256.857 152.208C257.697 152.208 258.441 151.956 259.089 151.452C259.761 150.948 260.289 150.264 260.673 149.4C261.057 148.536 261.249 147.564 261.249 146.484V138.348C261.249 137.268 261.069 136.476 260.709 135.972C260.349 135.444 259.665 135.18 258.657 135.18V134.424C259.425 134.496 260.169 134.532 260.889 134.532C261.681 134.532 262.437 134.496 263.157 134.424C263.877 134.328 264.537 134.196 265.137 134.028ZM274.528 153.252C273.52 153.252 272.656 153.06 271.936 152.676C271.216 152.292 270.676 151.764 270.316 151.092C269.956 150.42 269.776 149.652 269.776 148.788C269.776 147.732 270.016 146.88 270.496 146.232C270.976 145.56 271.588 145.02 272.332 144.612C273.1 144.204 273.904 143.868 274.744 143.604C275.608 143.316 276.412 143.052 277.156 142.812C277.924 142.548 278.548 142.248 279.028 141.912C279.532 141.576 279.784 141.132 279.784 140.58V138.132C279.784 137.268 279.64 136.584 279.352 136.08C279.088 135.552 278.716 135.18 278.236 134.964C277.78 134.748 277.228 134.64 276.58 134.64C276.028 134.64 275.44 134.724 274.816 134.892C274.192 135.036 273.7 135.336 273.34 135.792C273.868 135.936 274.3 136.224 274.636 136.656C274.996 137.064 275.176 137.58 275.176 138.204C275.176 138.876 274.948 139.404 274.492 139.788C274.06 140.172 273.508 140.364 272.836 140.364C272.092 140.364 271.54 140.136 271.18 139.68C270.82 139.2 270.64 138.648 270.64 138.024C270.64 137.376 270.796 136.848 271.108 136.44C271.444 136.032 271.876 135.648 272.404 135.288C272.98 134.904 273.712 134.58 274.6 134.316C275.512 134.052 276.52 133.92 277.624 133.92C278.656 133.92 279.544 134.04 280.288 134.28C281.056 134.496 281.692 134.856 282.196 135.36C282.796 135.912 283.192 136.608 283.384 137.448C283.576 138.264 283.672 139.26 283.672 140.436V150.372C283.672 150.972 283.744 151.404 283.888 151.668C284.056 151.908 284.32 152.028 284.68 152.028C284.92 152.028 285.148 151.968 285.364 151.848C285.604 151.728 285.88 151.548 286.192 151.308L286.552 151.92C286.048 152.328 285.532 152.652 285.004 152.892C284.5 153.132 283.852 153.252 283.06 153.252C282.292 153.252 281.668 153.132 281.188 152.892C280.708 152.652 280.348 152.304 280.108 151.848C279.892 151.392 279.784 150.828 279.784 150.156C279.16 151.164 278.416 151.932 277.552 152.46C276.688 152.988 275.68 153.252 274.528 153.252ZM276.256 151.524C276.928 151.524 277.552 151.332 278.128 150.948C278.728 150.564 279.28 149.988 279.784 149.22V142.056C279.52 142.44 279.136 142.776 278.632 143.064C278.128 143.328 277.588 143.604 277.012 143.892C276.436 144.18 275.884 144.516 275.356 144.9C274.852 145.26 274.432 145.728 274.096 146.304C273.76 146.88 273.592 147.612 273.592 148.5C273.592 149.436 273.832 150.18 274.312 150.732C274.792 151.26 275.44 151.524 276.256 151.524ZM293.892 124.776V149.652C293.892 150.66 294.084 151.344 294.468 151.704C294.876 152.064 295.548 152.244 296.484 152.244V153C296.076 152.976 295.44 152.952 294.576 152.928C293.712 152.88 292.848 152.856 291.984 152.856C291.12 152.856 290.244 152.88 289.356 152.928C288.492 152.952 287.844 152.976 287.412 153V152.244C288.348 152.244 289.008 152.064 289.392 151.704C289.8 151.344 290.004 150.66 290.004 149.652V129.096C290.004 128.016 289.824 127.224 289.464 126.72C289.104 126.192 288.42 125.928 287.412 125.928V125.172C288.18 125.244 288.924 125.28 289.644 125.28C290.436 125.28 291.192 125.244 291.912 125.172C292.632 125.076 293.292 124.944 293.892 124.776ZM302.53 125.352C303.274 125.352 303.898 125.592 304.402 126.072C304.906 126.528 305.158 127.104 305.158 127.8C305.158 128.496 304.906 129.084 304.402 129.564C303.898 130.02 303.274 130.248 302.53 130.248C301.786 130.248 301.162 130.02 300.658 129.564C300.154 129.084 299.902 128.496 299.902 127.8C299.902 127.104 300.154 126.528 300.658 126.072C301.162 125.592 301.786 125.352 302.53 125.352ZM304.69 134.028V149.652C304.69 150.66 304.882 151.344 305.266 151.704C305.674 152.064 306.346 152.244 307.282 152.244V153C306.874 152.976 306.238 152.952 305.374 152.928C304.534 152.88 303.67 152.856 302.782 152.856C301.942 152.856 301.078 152.88 300.19 152.928C299.302 152.952 298.642 152.976 298.21 153V152.244C299.146 152.244 299.806 152.064 300.19 151.704C300.598 151.344 300.802 150.66 300.802 149.652V138.348C300.802 137.268 300.622 136.476 300.262 135.972C299.902 135.444 299.218 135.18 298.21 135.18V134.424C298.978 134.496 299.722 134.532 300.442 134.532C301.258 134.532 302.014 134.496 302.71 134.424C303.43 134.328 304.09 134.196 304.69 134.028ZM315.303 128.484V134.46H320.271V135.18H315.303V149.328C315.303 150.312 315.483 151.008 315.843 151.416C316.203 151.824 316.719 152.028 317.391 152.028C318.015 152.028 318.567 151.776 319.047 151.272C319.551 150.768 319.983 149.916 320.343 148.716L321.027 148.968C320.739 150.24 320.223 151.32 319.479 152.208C318.759 153.072 317.691 153.504 316.275 153.504C315.459 153.504 314.775 153.396 314.223 153.18C313.671 152.988 313.191 152.7 312.783 152.316C312.255 151.764 311.895 151.104 311.703 150.336C311.511 149.568 311.415 148.548 311.415 147.276V135.18H308.103V134.46H311.415V129.204C312.159 129.18 312.855 129.12 313.503 129.024C314.151 128.904 314.751 128.724 315.303 128.484ZM338.723 134.424V135.144C338.267 135.216 337.847 135.456 337.463 135.864C337.079 136.248 336.707 136.92 336.347 137.88L330.731 152.928L329.867 153.792L322.847 137.196C322.391 136.26 321.947 135.696 321.515 135.504C321.107 135.288 320.759 135.18 320.471 135.18V134.424C321.071 134.496 321.707 134.556 322.379 134.604C323.051 134.628 323.747 134.64 324.467 134.64C325.283 134.64 326.099 134.616 326.915 134.568C327.755 134.52 328.535 134.472 329.255 134.424V135.18C328.679 135.18 328.163 135.228 327.707 135.324C327.275 135.396 326.987 135.624 326.843 136.008C326.723 136.368 326.843 136.992 327.203 137.88L331.667 148.86L331.415 148.968L335.051 139.32C335.411 138.36 335.555 137.592 335.483 137.016C335.411 136.416 335.159 135.972 334.727 135.684C334.295 135.372 333.659 135.192 332.819 135.144V134.424C333.227 134.448 333.599 134.472 333.935 134.496C334.295 134.496 334.643 134.508 334.979 134.532C335.315 134.532 335.651 134.532 335.987 134.532C336.515 134.532 337.007 134.52 337.463 134.496C337.943 134.472 338.363 134.448 338.723 134.424ZM330.731 152.928L329.435 156.312C329.195 156.912 328.943 157.416 328.679 157.824C328.439 158.232 328.175 158.568 327.887 158.832C327.527 159.168 327.083 159.408 326.555 159.552C326.027 159.696 325.499 159.768 324.971 159.768C324.467 159.768 323.987 159.672 323.531 159.48C323.099 159.312 322.739 159.048 322.451 158.688C322.163 158.328 322.019 157.884 322.019 157.356C322.019 156.732 322.223 156.228 322.631 155.844C323.039 155.46 323.579 155.268 324.251 155.268C324.851 155.268 325.355 155.424 325.763 155.736C326.171 156.072 326.375 156.552 326.375 157.176C326.375 157.608 326.255 157.98 326.015 158.292C325.799 158.604 325.511 158.844 325.151 159.012C325.223 159.036 325.295 159.048 325.367 159.048C325.439 159.048 325.499 159.048 325.547 159.048C326.219 159.048 326.819 158.82 327.347 158.364C327.875 157.932 328.319 157.224 328.679 156.24L329.975 152.784L330.731 152.928ZM357.711 127.368L366.495 149.976C366.831 150.864 367.215 151.464 367.647 151.776C368.103 152.088 368.523 152.256 368.907 152.28V153C368.331 152.952 367.647 152.928 366.855 152.928C366.087 152.904 365.307 152.892 364.515 152.892C363.507 152.892 362.571 152.904 361.707 152.928C360.843 152.928 360.147 152.952 359.619 153V152.28C360.843 152.232 361.611 152.028 361.923 151.668C362.259 151.284 362.187 150.48 361.707 149.256L355.227 131.76L355.803 131.112L349.827 146.736C349.395 147.816 349.131 148.716 349.035 149.436C348.963 150.156 349.023 150.72 349.215 151.128C349.431 151.536 349.791 151.824 350.295 151.992C350.799 152.16 351.423 152.256 352.167 152.28V153C351.447 152.952 350.715 152.928 349.971 152.928C349.251 152.904 348.567 152.892 347.919 152.892C347.343 152.892 346.827 152.904 346.371 152.928C345.939 152.928 345.543 152.952 345.183 153V152.28C345.687 152.16 346.191 151.86 346.695 151.38C347.199 150.9 347.679 150.084 348.135 148.932L356.487 127.368C356.679 127.368 356.883 127.368 357.099 127.368C357.315 127.368 357.519 127.368 357.711 127.368ZM361.491 142.632V143.352H350.763L351.123 142.632H361.491ZM376.309 133.92C377.269 133.92 378.097 134.076 378.793 134.388C379.513 134.676 380.029 134.94 380.341 135.18C381.133 135.804 381.625 135.396 381.817 133.956H382.609C382.561 134.628 382.525 135.444 382.501 136.404C382.477 137.34 382.465 138.588 382.465 140.148H381.673C381.529 139.26 381.277 138.396 380.917 137.556C380.581 136.716 380.077 136.02 379.405 135.468C378.757 134.916 377.905 134.64 376.849 134.64C376.057 134.64 375.397 134.868 374.869 135.324C374.341 135.756 374.077 136.404 374.077 137.268C374.077 137.988 374.293 138.612 374.725 139.14C375.157 139.668 375.709 140.16 376.381 140.616C377.077 141.072 377.821 141.564 378.613 142.092C379.501 142.692 380.293 143.292 380.989 143.892C381.709 144.468 382.273 145.116 382.681 145.836C383.113 146.556 383.329 147.396 383.329 148.356C383.329 149.46 383.029 150.396 382.429 151.164C381.853 151.932 381.085 152.52 380.125 152.928C379.165 153.312 378.109 153.504 376.957 153.504C376.381 153.504 375.841 153.444 375.337 153.324C374.833 153.228 374.365 153.096 373.933 152.928C373.669 152.784 373.405 152.64 373.141 152.496C372.901 152.328 372.661 152.172 372.421 152.028C372.181 151.86 371.965 151.884 371.773 152.1C371.581 152.316 371.437 152.7 371.341 153.252H370.549C370.597 152.484 370.633 151.548 370.657 150.444C370.681 149.34 370.693 147.876 370.693 146.052H371.485C371.653 147.372 371.905 148.536 372.241 149.544C372.577 150.552 373.069 151.344 373.717 151.92C374.389 152.472 375.301 152.748 376.453 152.748C376.909 152.748 377.365 152.652 377.821 152.46C378.277 152.244 378.649 151.908 378.937 151.452C379.249 150.996 379.405 150.384 379.405 149.616C379.405 148.56 379.033 147.696 378.289 147.024C377.569 146.328 376.633 145.596 375.481 144.828C374.665 144.252 373.885 143.688 373.141 143.136C372.421 142.56 371.833 141.924 371.377 141.228C370.921 140.508 370.693 139.656 370.693 138.672C370.693 137.592 370.945 136.704 371.449 136.008C371.977 135.312 372.673 134.796 373.537 134.46C374.401 134.1 375.325 133.92 376.309 133.92ZM392.586 133.92C393.546 133.92 394.374 134.076 395.07 134.388C395.79 134.676 396.306 134.94 396.618 135.18C397.41 135.804 397.902 135.396 398.094 133.956H398.886C398.838 134.628 398.802 135.444 398.778 136.404C398.754 137.34 398.742 138.588 398.742 140.148H397.95C397.806 139.26 397.554 138.396 397.194 137.556C396.858 136.716 396.354 136.02 395.682 135.468C395.034 134.916 394.182 134.64 393.126 134.64C392.334 134.64 391.674 134.868 391.146 135.324C390.618 135.756 390.354 136.404 390.354 137.268C390.354 137.988 390.57 138.612 391.002 139.14C391.434 139.668 391.986 140.16 392.658 140.616C393.354 141.072 394.098 141.564 394.89 142.092C395.778 142.692 396.57 143.292 397.266 143.892C397.986 144.468 398.55 145.116 398.958 145.836C399.39 146.556 399.606 147.396 399.606 148.356C399.606 149.46 399.306 150.396 398.706 151.164C398.13 151.932 397.362 152.52 396.402 152.928C395.442 153.312 394.386 153.504 393.234 153.504C392.658 153.504 392.118 153.444 391.614 153.324C391.11 153.228 390.642 153.096 390.21 152.928C389.946 152.784 389.682 152.64 389.418 152.496C389.178 152.328 388.938 152.172 388.698 152.028C388.458 151.86 388.242 151.884 388.05 152.1C387.858 152.316 387.714 152.7 387.618 153.252H386.826C386.874 152.484 386.91 151.548 386.934 150.444C386.958 149.34 386.97 147.876 386.97 146.052H387.762C387.93 147.372 388.182 148.536 388.518 149.544C388.854 150.552 389.346 151.344 389.994 151.92C390.666 152.472 391.578 152.748 392.73 152.748C393.186 152.748 393.642 152.652 394.098 152.46C394.554 152.244 394.926 151.908 395.214 151.452C395.526 150.996 395.682 150.384 395.682 149.616C395.682 148.56 395.31 147.696 394.566 147.024C393.846 146.328 392.91 145.596 391.758 144.828C390.942 144.252 390.162 143.688 389.418 143.136C388.698 142.56 388.11 141.924 387.654 141.228C387.198 140.508 386.97 139.656 386.97 138.672C386.97 137.592 387.222 136.704 387.726 136.008C388.254 135.312 388.95 134.796 389.814 134.46C390.678 134.1 391.602 133.92 392.586 133.92ZM419.051 134.028V149.112C419.051 150.192 419.231 150.996 419.591 151.524C419.975 152.028 420.659 152.28 421.643 152.28V153.036C420.899 152.964 420.155 152.928 419.411 152.928C418.619 152.928 417.863 152.964 417.143 153.036C416.423 153.108 415.763 153.24 415.163 153.432V149.508C414.563 150.948 413.723 151.98 412.643 152.604C411.587 153.204 410.471 153.504 409.295 153.504C408.407 153.504 407.651 153.372 407.027 153.108C406.403 152.868 405.887 152.544 405.479 152.136C405.047 151.656 404.747 151.044 404.579 150.3C404.411 149.532 404.327 148.572 404.327 147.42V138.348C404.327 137.268 404.147 136.476 403.787 135.972C403.427 135.444 402.743 135.18 401.735 135.18V134.424C402.503 134.496 403.247 134.532 403.967 134.532C404.759 134.532 405.515 134.496 406.235 134.424C406.955 134.328 407.615 134.196 408.215 134.028V148.428C408.215 149.124 408.263 149.76 408.359 150.336C408.455 150.912 408.683 151.368 409.043 151.704C409.403 152.04 409.979 152.208 410.771 152.208C411.611 152.208 412.355 151.956 413.003 151.452C413.675 150.948 414.203 150.264 414.587 149.4C414.971 148.536 415.163 147.564 415.163 146.484V138.348C415.163 137.268 414.983 136.476 414.623 135.972C414.263 135.444 413.579 135.18 412.571 135.18V134.424C413.339 134.496 414.083 134.532 414.803 134.532C415.595 134.532 416.351 134.496 417.071 134.424C417.791 134.328 418.451 134.196 419.051 134.028ZM434.959 133.92C435.655 133.92 436.243 134.064 436.723 134.352C437.227 134.64 437.599 135.012 437.839 135.468C438.103 135.9 438.235 136.392 438.235 136.944C438.235 137.64 438.019 138.24 437.587 138.744C437.179 139.224 436.627 139.464 435.931 139.464C435.331 139.464 434.815 139.284 434.383 138.924C433.975 138.564 433.771 138.072 433.771 137.448C433.771 136.92 433.903 136.476 434.167 136.116C434.455 135.732 434.779 135.432 435.139 135.216C434.899 135.024 434.611 134.94 434.275 134.964C433.627 134.988 433.027 135.204 432.475 135.612C431.923 135.996 431.455 136.5 431.071 137.124C430.687 137.724 430.387 138.372 430.171 139.068C429.955 139.764 429.847 140.412 429.847 141.012V149.292C429.847 150.468 430.171 151.26 430.819 151.668C431.467 152.052 432.367 152.244 433.519 152.244V153C432.967 152.976 432.175 152.952 431.143 152.928C430.135 152.88 429.067 152.856 427.939 152.856C427.075 152.856 426.211 152.88 425.347 152.928C424.483 152.952 423.823 152.976 423.367 153V152.244C424.303 152.244 424.963 152.064 425.347 151.704C425.755 151.344 425.959 150.66 425.959 149.652V138.348C425.959 137.268 425.779 136.476 425.419 135.972C425.059 135.444 424.375 135.18 423.367 135.18V134.424C424.135 134.496 424.879 134.532 425.599 134.532C426.415 134.532 427.171 134.496 427.867 134.424C428.587 134.328 429.247 134.196 429.847 134.028V138.168C430.135 137.472 430.519 136.8 430.999 136.152C431.479 135.504 432.055 134.976 432.727 134.568C433.399 134.136 434.143 133.92 434.959 133.92ZM447.939 133.92C450.051 133.92 451.707 134.556 452.907 135.828C454.107 137.1 454.707 139.116 454.707 141.876H442.287L442.215 141.192H450.891C450.915 140.016 450.819 138.936 450.603 137.952C450.387 136.944 450.051 136.14 449.595 135.54C449.139 134.94 448.539 134.64 447.795 134.64C446.763 134.64 445.863 135.192 445.095 136.296C444.351 137.376 443.895 139.116 443.727 141.516L443.835 141.696C443.811 142.032 443.787 142.404 443.763 142.812C443.739 143.196 443.727 143.58 443.727 143.964C443.727 145.62 443.979 147.012 444.483 148.14C444.987 149.268 445.647 150.12 446.463 150.696C447.279 151.248 448.107 151.524 448.947 151.524C449.595 151.524 450.219 151.428 450.819 151.236C451.443 151.02 452.031 150.672 452.583 150.192C453.135 149.688 453.627 149.004 454.059 148.14L454.779 148.428C454.491 149.244 454.047 150.048 453.447 150.84C452.847 151.632 452.079 152.28 451.143 152.784C450.207 153.264 449.115 153.504 447.867 153.504C446.187 153.504 444.723 153.132 443.475 152.388C442.227 151.62 441.267 150.528 440.595 149.112C439.923 147.696 439.587 146.016 439.587 144.072C439.587 141.936 439.935 140.112 440.631 138.6C441.327 137.088 442.299 135.936 443.547 135.144C444.819 134.328 446.283 133.92 447.939 133.92Z" fill="#4B4B4B"/>
<path d="M120 175C153.137 175 180 148.137 180 115C180 81.8629 153.137 55 120 55C86.8629 55 60 81.8629 60 115C60 148.137 86.8629 175 120 175Z" fill="url(#paint1_linear_123_30)"/>
<path d="M118.582 101.317C119.13 101.836 120.04 101.731 120.456 101.104L128.645 88.7441C128.735 88.6093 128.796 88.4583 128.827 88.2996C128.858 88.141 128.858 87.9778 128.826 87.8194C128.793 87.6609 128.73 87.5104 128.64 87.3763C128.55 87.2423 128.434 87.1273 128.299 87.038C127.733 86.6631 126.969 86.8182 126.594 87.3842L119.214 98.5224L115.113 94.6285C114.876 94.4038 114.56 94.2824 114.233 94.2909C113.907 94.2994 113.597 94.4372 113.373 94.674C113.261 94.7912 113.174 94.9291 113.117 95.08C113.059 95.2308 113.031 95.3916 113.035 95.5531C113.039 95.7146 113.075 95.8737 113.141 96.0213C113.207 96.1689 113.301 96.3021 113.418 96.4134C113.418 96.4134 118.578 101.313 118.582 101.317H118.582Z" fill="black"/>
<path d="M119.422 120.084C119.659 120.192 119.916 120.248 120.176 120.249H120.187C120.451 120.247 120.711 120.188 120.95 120.075C139.661 111.176 142.832 91.9769 143.357 86.3047C143.478 85.0094 142.748 83.8034 141.543 83.3035C137.818 81.757 135.286 78.2989 134.935 74.2787C134.826 73.0412 133.769 72.0767 132.523 72.0767H132.508L107.301 72.2246C106.03 72.2317 104.997 73.1975 104.9 74.471C104.59 78.4923 102.095 81.9755 98.3885 83.561C97.1953 84.0713 96.4839 85.2837 96.6199 86.5781C97.212 92.2442 100.608 111.406 119.422 120.084ZM99.3563 85.8235C103.901 83.8803 106.962 79.614 107.351 74.6853L132.487 74.5376C132.934 79.4557 136.039 83.6828 140.6 85.5759C140.803 85.6612 140.927 85.8623 140.907 86.0778C140.414 91.3937 137.461 109.318 120.172 117.718C102.783 109.523 99.6231 91.6327 99.0669 86.3225C99.0553 86.2193 99.0772 86.115 99.1293 86.0251C99.1814 85.9352 99.2611 85.8645 99.3565 85.8233L99.3563 85.8235Z" fill="black"/>
<path d="M102.429 92.6448C102.577 93.1921 103.271 93.6931 103.939 93.5094C104.594 93.3286 104.982 92.6551 104.804 91.9995C104.491 90.8497 104.23 89.6867 104.02 88.5139C107.359 86.3404 109.846 83.0815 111.061 79.2871L128.83 79.1828C130.09 82.9626 132.614 86.192 135.979 88.326C135.783 89.5022 135.535 90.669 135.235 91.8232C135.154 92.1391 135.201 92.4747 135.366 92.756C135.532 93.0372 135.802 93.2413 136.118 93.3231C136.434 93.4049 136.77 93.3579 137.051 93.1924C137.332 93.0268 137.536 92.7563 137.618 92.4404C137.969 91.0863 138.254 89.7157 138.47 88.3337C138.53 87.9634 138.477 87.5839 138.319 87.2438C138.161 86.9038 137.905 86.6187 137.584 86.4252C134.45 84.5349 132.124 81.5539 131.053 78.0542C130.811 77.2666 130.069 76.7192 129.245 76.7192H129.233L110.628 76.8282C109.799 76.8333 109.057 77.3916 108.825 78.185C107.793 81.7 105.508 84.6999 102.393 86.6322C101.74 87.0366 101.401 87.7895 101.528 88.5509C101.761 89.9294 102.062 91.2957 102.429 92.6448ZM135.131 96.2932C134.503 96.0332 133.784 96.3331 133.524 96.9609C130.681 103.853 126.179 109.093 120.141 112.541C114.056 109.159 109.489 103.964 106.565 97.0937C106.437 96.7936 106.195 96.5567 105.893 96.4348C105.59 96.313 105.251 96.3163 104.951 96.444C104.802 96.5072 104.668 96.5991 104.555 96.7144C104.441 96.8298 104.352 96.9662 104.292 97.1161C104.231 97.2659 104.201 97.4262 104.203 97.5877C104.204 97.7492 104.237 97.9089 104.301 98.0575C107.492 105.555 112.519 111.206 119.242 114.855C119.522 115.008 119.836 115.087 120.156 115.086C120.475 115.084 120.789 115.001 121.067 114.845C127.74 111.122 132.696 105.42 135.799 97.8994C135.861 97.75 135.893 97.59 135.893 97.4284C135.892 97.2668 135.86 97.1069 135.798 96.9577C135.736 96.8085 135.645 96.673 135.531 96.559C135.416 96.445 135.28 96.3547 135.131 96.2932ZM85.8948 135.04C83.4948 135.04 81.5414 136.992 81.5414 139.393C81.5414 141.794 83.4948 143.746 85.8948 143.746C88.2956 143.746 90.2491 141.794 90.2491 139.393C90.2491 136.992 88.2962 135.04 85.8948 135.04ZM85.8948 141.285C84.8514 141.285 84.0024 140.437 84.0024 139.393C84.0024 138.35 84.8516 137.5 85.8948 137.5C86.9388 137.5 87.7881 138.35 87.7881 139.393C87.7881 140.437 86.9388 141.286 85.8948 141.286V141.285Z" fill="black"/>
<path d="M161.118 122.993C159.54 120.676 156.365 120.062 154.039 121.624L137.953 132.39L134.52 132.197L134.432 131.318C134.269 129.649 133.549 128.083 132.388 126.873C131.227 125.662 129.692 124.878 128.031 124.647C128.01 124.643 127.988 124.641 127.967 124.639L110.634 123.12C110.047 123.028 108.17 122.489 103.012 119.531C100.332 117.993 97.3113 117.126 94.2428 117.008V113.789C94.2428 112.173 92.929 110.859 91.3133 110.859H80.9293C79.3145 110.859 78 112.174 78 113.789V145.493C78 147.108 79.3145 148.423 80.9293 148.423H91.3133C92.9284 148.423 94.2428 147.108 94.2428 145.493V144.62L109.394 150.358C109.428 150.37 110.658 150.83 112.92 150.617C112.927 150.616 138.096 146.988 138.096 146.988C138.102 146.987 138.108 146.986 138.114 146.985C140.267 146.64 142.291 145.734 143.981 144.356C143.996 144.344 144.011 144.331 144.025 144.318L160.285 129.694C162.201 127.993 162.559 125.112 161.118 122.993ZM158.645 127.859L142.403 142.468C141.056 143.559 139.446 144.278 137.735 144.553L112.578 148.18C112.571 148.181 112.564 148.182 112.556 148.183L112.544 148.185C111.792 148.304 111.008 148.253 110.214 148.036L94.2428 141.989V127.936C94.2428 127.61 94.1132 127.297 93.8824 127.066C93.6517 126.835 93.3387 126.706 93.0124 126.706C92.8508 126.706 92.6907 126.738 92.5414 126.799C92.3921 126.861 92.2564 126.952 92.1422 127.066C92.0279 127.18 91.9373 127.316 91.8754 127.465C91.8136 127.615 91.7818 127.775 91.7819 127.936V145.493C91.7817 145.618 91.7323 145.737 91.6445 145.825C91.5566 145.912 91.4376 145.962 91.3133 145.962H80.9293C80.8051 145.962 80.6861 145.912 80.5983 145.824C80.5104 145.737 80.4611 145.618 80.4609 145.493V113.789C80.4612 113.665 80.5106 113.546 80.5984 113.458C80.6862 113.37 80.8052 113.321 80.9293 113.32H91.3133C91.4375 113.321 91.5566 113.37 91.6444 113.458C91.7322 113.546 91.7817 113.665 91.7819 113.789V122.378C91.7819 122.704 91.9115 123.017 92.1423 123.248C92.3731 123.479 92.686 123.608 93.0124 123.608C93.3387 123.608 93.6517 123.479 93.8824 123.248C94.1132 123.017 94.2428 122.704 94.2428 122.378V119.472C96.8826 119.588 99.4794 120.342 101.788 121.666C108.009 125.234 109.746 125.48 110.317 125.561C110.339 125.564 110.36 125.566 110.382 125.569L127.717 127.088C128.825 127.249 129.848 127.778 130.621 128.589C131.395 129.4 131.874 130.446 131.983 131.562L132.048 132.217L108.84 133.65C108.463 133.624 108.094 133.521 107.757 133.348C107.42 133.175 107.122 132.936 106.88 132.645C106.777 132.52 106.65 132.418 106.507 132.343C106.364 132.268 106.207 132.222 106.046 132.207C105.885 132.192 105.723 132.21 105.569 132.258C105.415 132.306 105.271 132.384 105.147 132.488C105.023 132.591 104.92 132.718 104.845 132.861C104.77 133.004 104.724 133.16 104.71 133.321C104.695 133.482 104.712 133.645 104.76 133.799C104.809 133.953 104.887 134.096 104.99 134.22C105.893 135.304 107.167 135.951 108.575 136.098C109.335 136.177 133.402 134.599 133.402 134.599L138.226 134.87C138.493 134.885 138.758 134.813 138.979 134.664L155.41 123.668C156.617 122.857 158.264 123.175 159.083 124.377C159.831 125.477 159.645 126.972 158.645 127.859Z" fill="black"/>
<defs>
<linearGradient id="paint0_linear_123_30" x1="217" y1="0" x2="217" y2="230" gradientUnits="userSpaceOnUse">
<stop stop-color="#C3C3C3" stop-opacity="0"/>
<stop offset="0.333768" stop-color="#BBB9B9" stop-opacity="0.74"/>
<stop offset="0.734833" stop-color="#BBB9B9" stop-opacity="0.41"/>
<stop offset="1" stop-color="#C3C3C3" stop-opacity="0"/>
</linearGradient>
<linearGradient id="paint1_linear_123_30" x1="78" y1="55" x2="151.5" y2="175" gradientUnits="userSpaceOnUse">
<stop stop-color="#E4E6E7" stop-opacity="0"/>
<stop offset="0.479165" stop-color="#E4E6E7"/>
<stop offset="1" stop-color="#E4E6E7" stop-opacity="0"/>
</linearGradient>
</defs>
</svg>
