<svg width="120" height="120" viewBox="0 0 120 120" fill="none" xmlns="http://www.w3.org/2000/svg">
<path d="M60 120C93.1371 120 120 93.1371 120 60C120 26.8629 93.1371 0 60 0C26.8629 0 0 26.8629 0 60C0 93.1371 26.8629 120 60 120Z" fill="url(#paint0_linear_25_91)"/>
<path d="M58.5825 46.3167C59.1296 46.8364 60.0397 46.7313 60.4556 46.1039L68.6453 33.7441C68.7346 33.6093 68.7964 33.4583 68.8274 33.2996C68.8583 33.141 68.8577 32.9778 68.8255 32.8194C68.7934 32.6609 68.7303 32.5104 68.64 32.3763C68.5497 32.2423 68.4338 32.1273 68.2991 32.038C67.7334 31.6631 66.9694 31.8182 66.5938 32.3842L59.2136 43.5224L55.1127 39.6285C54.8759 39.4038 54.5596 39.2824 54.2333 39.2909C53.907 39.2994 53.5974 39.4372 53.3727 39.674C53.2615 39.7912 53.1744 39.9291 53.1165 40.08C53.0586 40.2308 53.031 40.3916 53.0352 40.5531C53.0395 40.7146 53.0755 40.8737 53.1412 41.0213C53.2069 41.1689 53.3011 41.3021 53.4183 41.4134C53.4176 41.4134 58.5779 46.3128 58.5823 46.3167H58.5825Z" fill="black"/>
<path d="M59.422 65.0841C59.6588 65.1923 59.9159 65.2484 60.1762 65.2489H60.1865C60.4506 65.2475 60.7112 65.188 60.9497 65.0746C79.6606 56.176 82.8316 36.9769 83.3571 31.3047C83.4777 30.0094 82.7484 28.8034 81.5429 28.3035C77.818 26.757 75.286 23.2989 74.9348 19.2787C74.8265 18.0412 73.7691 17.0767 72.5232 17.0767H72.5084L47.3006 17.2246C46.0297 17.2317 44.9971 18.1975 44.8998 19.471C44.5898 23.4923 42.0947 26.9755 38.3885 28.561C37.1953 29.0713 36.4839 30.2837 36.6199 31.5781C37.212 37.2442 40.608 56.4056 59.422 65.0841ZM39.3563 30.8235C43.9009 28.8803 46.9623 24.614 47.3511 19.6853L72.4868 19.5376C72.9335 24.4557 76.0386 28.6828 80.5997 30.5759C80.8034 30.6612 80.9271 30.8623 80.9073 31.0778C80.4138 36.3937 77.4613 54.3182 60.1719 62.718C42.7833 54.5226 39.6231 36.6327 39.0669 31.3225C39.0553 31.2193 39.0772 31.115 39.1293 31.0251C39.1814 30.9352 39.2611 30.8645 39.3565 30.8233L39.3563 30.8235Z" fill="black"/>
<path d="M42.4286 37.6448C42.5774 38.1921 43.2714 38.6931 43.9391 38.5094C44.5942 38.3286 44.9819 37.6551 44.8037 36.9995C44.4914 35.8497 44.2299 34.6867 44.02 33.5139C47.359 31.3404 49.8458 28.0815 51.0606 24.2871L68.8305 24.1828C70.0896 27.9626 72.6145 31.192 75.9787 33.326C75.783 34.5022 75.535 35.669 75.2355 36.8232C75.1536 37.1391 75.2007 37.4747 75.3662 37.756C75.5318 38.0372 75.8023 38.2413 76.1182 38.3231C76.4342 38.4049 76.7697 38.3579 77.051 38.1924C77.3323 38.0268 77.5363 37.7563 77.6182 37.4404C77.9693 36.0863 78.2538 34.7157 78.4705 33.3337C78.5297 32.9634 78.4768 32.5839 78.3188 32.2438C78.1608 31.9038 77.9047 31.6187 77.5836 31.4252C74.4496 29.5349 72.124 26.5539 71.053 23.0542C70.8114 22.2666 70.0687 21.7192 69.2446 21.7192H69.2331L50.6284 21.8282C49.7992 21.8333 49.0572 22.3916 48.8245 23.185C47.7926 26.7 45.508 29.6999 42.3928 31.6322C41.7398 32.0366 41.4007 32.7895 41.5282 33.5509C41.7613 34.9294 42.0618 36.2957 42.4286 37.6448ZM75.131 41.2932C74.5028 41.0332 73.7839 41.3331 73.5243 41.9609C70.6808 48.853 66.1792 54.0927 60.1409 57.5413C54.0558 54.1593 49.4892 48.9638 46.5654 42.0937C46.4373 41.7936 46.1953 41.5567 45.8926 41.4348C45.5899 41.313 45.2513 41.3163 44.951 41.444C44.8024 41.5072 44.6676 41.5991 44.5545 41.7144C44.4414 41.8298 44.3521 41.9662 44.2917 42.1161C44.2313 42.2659 44.201 42.4262 44.2025 42.5877C44.2041 42.7492 44.2374 42.9089 44.3007 43.0575C47.4915 50.5545 52.5186 56.2063 59.2419 59.8547C59.522 60.0079 59.8365 60.0873 60.1558 60.0855C60.475 60.0837 60.7886 60.0008 61.0671 59.8446C67.7398 56.1217 72.6963 50.4205 75.7994 42.8994C75.8611 42.75 75.8928 42.59 75.8926 42.4284C75.8924 42.2668 75.8604 42.1069 75.7983 41.9577C75.7362 41.8085 75.6453 41.673 75.5308 41.559C75.4163 41.445 75.2804 41.3547 75.131 41.2932ZM25.8948 80.0395C23.4948 80.0395 21.5414 81.9924 21.5414 84.3931C21.5414 86.7936 23.4948 88.7465 25.8948 88.7465C28.2956 88.7465 30.2491 86.7936 30.2491 84.3931C30.2491 81.9924 28.2962 80.0395 25.8948 80.0395ZM25.8948 86.2854C24.8514 86.2854 24.0024 85.437 24.0024 84.3931C24.0024 83.3496 24.8516 82.5005 25.8948 82.5005C26.9388 82.5005 27.7881 83.3496 27.7881 84.3931C27.7881 85.437 26.9388 86.2855 25.8948 86.2855V86.2854Z" fill="black"/>
<path d="M101.118 67.9931C99.5404 65.6757 96.3648 65.0616 94.0392 66.6242L77.9534 77.3901L74.5195 77.1972L74.4318 76.3178C74.269 74.6486 73.5491 73.0828 72.388 71.8727C71.227 70.6625 69.6923 69.8783 68.0314 69.6465C68.0099 69.6433 67.9883 69.6408 67.9667 69.6388L50.6337 68.1198C50.0473 68.0282 48.1703 67.4891 43.0125 64.5309C40.3317 62.9935 37.3113 62.1257 34.2428 62.0078V58.7889C34.2428 57.173 32.929 55.8594 31.3133 55.8594H20.9293C19.3145 55.8594 18 57.1738 18 58.7889V90.4933C18 92.1083 19.3145 93.4228 20.9293 93.4228H31.3133C32.9284 93.4228 34.2428 92.1083 34.2428 90.4933V89.6198L49.3942 95.3576C49.4276 95.3704 50.6581 95.8304 52.9204 95.6171C52.9268 95.6165 78.0956 91.9879 78.0956 91.9879C78.102 91.9872 78.1077 91.9859 78.1141 91.9846C80.267 91.6405 82.2908 90.7338 83.9807 89.3563C83.9961 89.3435 84.0109 89.3307 84.0255 89.318L100.285 74.6939C102.201 72.9926 102.559 70.1116 101.118 67.9931ZM98.6451 72.8592L82.4029 87.4678C81.0559 88.559 79.4464 89.278 77.7348 89.5531L52.5781 93.1798C52.5708 93.1807 52.5636 93.1818 52.5563 93.1831L52.5442 93.1849C51.7918 93.3035 51.0079 93.2535 50.214 93.0363L34.2428 86.9886V72.9363C34.2428 72.61 34.1132 72.297 33.8824 72.0662C33.6517 71.8355 33.3387 71.7058 33.0124 71.7058C32.8508 71.7058 32.6907 71.7376 32.5414 71.7994C32.3921 71.8612 32.2564 71.9518 32.1422 72.0661C32.0279 72.1804 31.9373 72.316 31.8754 72.4654C31.8136 72.6147 31.7818 72.7747 31.7819 72.9363V90.4935C31.7817 90.6177 31.7323 90.7368 31.6445 90.8246C31.5566 90.9124 31.4376 90.9618 31.3133 90.962H20.9293C20.8051 90.9618 20.6861 90.9123 20.5983 90.8245C20.5104 90.7366 20.4611 90.6175 20.4609 90.4933V58.7889C20.4612 58.6647 20.5106 58.5457 20.5984 58.4579C20.6862 58.3701 20.8052 58.3207 20.9293 58.3205H31.3133C31.4375 58.3207 31.5566 58.37 31.6444 58.4578C31.7322 58.5456 31.7817 58.6647 31.7819 58.7889V67.3779C31.7819 67.7042 31.9115 68.0172 32.1423 68.2479C32.3731 68.4787 32.686 68.6083 33.0124 68.6083C33.3387 68.6083 33.6517 68.4787 33.8824 68.2479C34.1132 68.0172 34.2428 67.7042 34.2428 67.3779V64.4715C36.8826 64.588 39.4794 65.3417 41.7878 66.6665C48.0087 70.2342 49.7461 70.4803 50.317 70.561C50.3389 70.5643 50.36 70.5661 50.3818 70.5687L67.7167 72.0876C68.8255 72.2494 69.8481 72.7779 70.6214 73.5888C71.3947 74.3998 71.8741 75.4464 71.983 76.5616L72.0484 77.217L48.8405 78.6501C48.4627 78.6236 48.0943 78.5208 47.7573 78.3479C47.4204 78.1751 47.1219 77.9359 46.8799 77.6446C46.7765 77.5204 46.6497 77.4179 46.5066 77.3428C46.3635 77.2677 46.2071 77.2215 46.0461 77.2069C45.8852 77.1924 45.723 77.2096 45.5688 77.2578C45.4145 77.3059 45.2713 77.384 45.1473 77.4876C45.0231 77.591 44.9205 77.7178 44.8454 77.8609C44.7703 78.004 44.7241 78.1605 44.7095 78.3214C44.6949 78.4824 44.7122 78.6446 44.7604 78.7989C44.8086 78.9531 44.8867 79.0964 44.9902 79.2204C45.8932 80.3035 47.1674 80.9514 48.5752 81.0976C49.3353 81.177 73.4019 79.5992 73.4019 79.5992L78.2264 79.8702C78.4932 79.8853 78.7576 79.8128 78.9794 79.6639L95.4099 68.6679C96.6168 67.8573 98.2643 68.1751 99.0828 69.3773C99.8306 70.477 99.6449 71.9716 98.6451 72.8592Z" fill="black"/>
<defs>
<linearGradient id="paint0_linear_25_91" x1="18" y1="-7.37608e-07" x2="91.5" y2="120" gradientUnits="userSpaceOnUse">
<stop stop-color="#E4E6E7" stop-opacity="0"/>
<stop offset="0.479165" stop-color="#E4E6E7"/>
<stop offset="1" stop-color="#E4E6E7" stop-opacity="0"/>
</linearGradient>
</defs>
</svg>
