<svg width="29" height="17" viewBox="0 0 29 17" fill="none" xmlns="http://www.w3.org/2000/svg">
<path d="M7.11111 3.16666C7.11111 2.67599 6.71289 2.27777 6.22222 2.27777H0.888889C0.398222 2.27777 0 2.67599 0 3.16666C0 3.65733 0.398222 4.05555 0.888889 4.05555H6.22222C6.71289 4.05555 7.11111 3.65733 7.11111 3.16666ZM6.22222 5.83333H2.66667C2.176 5.83333 1.77778 6.23155 1.77778 6.72222C1.77778 7.21288 2.176 7.6111 2.66667 7.6111H6.22222C6.71289 7.6111 7.11111 7.21288 7.11111 6.72222C7.11111 6.23155 6.71289 5.83333 6.22222 5.83333ZM6.22222 9.38888H4.44444C3.95378 9.38888 3.55556 9.78711 3.55556 10.2778C3.55556 10.7684 3.95378 11.1667 4.44444 11.1667H6.22222C6.71289 11.1667 7.11111 10.7684 7.11111 10.2778C7.11111 9.78711 6.71289 9.38888 6.22222 9.38888Z" fill="#FFC107"/>
<path d="M28.3182 8.93199L25.6515 4.48754C25.5727 4.35564 25.461 4.24647 25.3273 4.17074C25.1936 4.09501 25.0425 4.05531 24.8889 4.05554H18.6667C18.176 4.05554 17.7778 4.45377 17.7778 4.94443V13.8333C17.7778 14.324 18.176 14.7222 18.6667 14.7222H27.5555C28.0462 14.7222 28.4444 14.324 28.4444 13.8333V9.38888C28.4444 9.2271 28.4018 9.06888 28.3182 8.93199Z" fill="#F44336"/>
<path d="M21.3333 5.83334H24.3858L26.5191 9.3889H21.3333V5.83334Z" fill="#FAFAFA"/>
<path d="M18.6667 0.5H6.22223C5.73157 0.5 5.33334 0.898222 5.33334 1.38889V13.8333C5.33334 14.324 5.73157 14.7222 6.22223 14.7222H19.5556V1.38889C19.5556 0.898222 19.1573 0.5 18.6667 0.5Z" fill="#FFC107"/>
<path d="M24 15.6111C24.9818 15.6111 25.7778 14.8152 25.7778 13.8333C25.7778 12.8515 24.9818 12.0555 24 12.0555C23.0182 12.0555 22.2222 12.8515 22.2222 13.8333C22.2222 14.8152 23.0182 15.6111 24 15.6111Z" fill="#FAFAFA"/>
<path d="M24 16.5C22.5298 16.5 21.3333 15.3035 21.3333 13.8333C21.3333 12.3631 22.5298 11.1667 24 11.1667C25.4702 11.1667 26.6667 12.3631 26.6667 13.8333C26.6667 15.3035 25.4702 16.5 24 16.5ZM24 12.9444C23.5111 12.9444 23.1111 13.3444 23.1111 13.8333C23.1111 14.3222 23.5111 14.7222 24 14.7222C24.4889 14.7222 24.8889 14.3222 24.8889 13.8333C24.8889 13.3444 24.4889 12.9444 24 12.9444Z" fill="#455A64"/>
<path d="M19.5556 14.7222H6.22223C5.73157 14.7222 5.33334 14.324 5.33334 13.8333V11.1667H19.5556V14.7222Z" fill="#F44336"/>
<path d="M11.5555 15.6111C12.5374 15.6111 13.3333 14.8152 13.3333 13.8333C13.3333 12.8515 12.5374 12.0555 11.5555 12.0555C10.5737 12.0555 9.77777 12.8515 9.77777 13.8333C9.77777 14.8152 10.5737 15.6111 11.5555 15.6111Z" fill="#FAFAFA"/>
<path d="M11.5556 16.5C10.0853 16.5 8.88889 15.3035 8.88889 13.8333C8.88889 12.3631 10.0853 11.1667 11.5556 11.1667C13.0258 11.1667 14.2222 12.3631 14.2222 13.8333C14.2222 15.3035 13.0258 16.5 11.5556 16.5ZM11.5556 12.9444C11.0649 12.9444 10.6667 13.3444 10.6667 13.8333C10.6667 14.3222 11.0649 14.7222 11.5556 14.7222C12.0462 14.7222 12.4444 14.3222 12.4444 13.8333C12.4444 13.3444 12.0462 12.9444 11.5556 12.9444Z" fill="#455A64"/>
</svg>
